<svg version="1.1" xmlns="http://www.w3.org/2000/svg" viewBox="-4290.620340625173 -1049.6000244140625 8471.61239384783 2701.3120361328124"><desc>Created with Snap</desc><defs></defs><g><rect x="-4290.620340625173" y="-1049.6000244140625" width="8471.61239384783" height="2701.3120361328124" fill="none" style=""></rect><g><g transform="matrix(1.024,0,0,-1.024,0,0)"><path d="M461 616L463 490Q463 487 457 486Q452 486 451 489Q444 544 412 572Q380 601 328 601L277 601Q234 601 218 589Q203 577 203 543L203 325L295 325Q349 325 374 343Q400 361 400 397Q400 399 406 399Q412 399 412 397L411 313Q411 283 412 268L413 218Q413 216 407 216Q401 216 401 218Q401 261 375 281Q349 302 292 302L203 302L203 85Q203 53 211 38Q220 24 244 18Q268 12 320 12Q322 12 322 6Q322 0 320 0Q279 0 256 1L162 2L92 1Q73 0 39 0Q37 0 37 6Q37 12 39 12Q76 12 93 17Q111 22 117 36Q123 51 123 81L123 544Q123 574 117 588Q111 602 94 607Q78 613 43 613Q40 613 40 619Q40 625 43 625L451 625Q461 625 461 616ZM796 395Q819 395 839 381Q859 368 859 349Q859 334 849 323Q839 313 822 313Q812 313 805 316Q798 320 793 324Q788 329 786 330Q778 338 770 342Q763 347 752 347Q740 347 726 337Q712 328 684 296L684 81Q684 52 691 37Q699 23 719 17Q739 12 779 12Q782 12 782 6Q782 0 779 0Q746 0 726 1L650 2L594 1Q580 0 556 0Q553 0 553 6Q553 12 556 12Q592 12 603 25Q615 39 615 81L615 276Q615 309 607 323Q600 338 582 338Q563 338 529 324L527 324Q524 324 522 329Q521 334 524 335L648 394Q650 395 654 395Q664 395 673 373Q683 351 684 315Q725 361 749 378Q774 395 796 395ZM1115 -13Q1056 -13 1011 15Q966 44 941 92Q917 141 917 198Q917 263 949 308Q981 354 1031 376Q1081 399 1133 399Q1192 399 1237 370Q1282 341 1306 293Q1330 246 1330 193Q1330 132 1300 85Q1271 38 1222 12Q1173 -13 1115 -13ZM1144 6Q1194 6 1221 45Q1248 84 1248 162Q1248 227 1228 276Q1209 326 1175 352Q1141 379 1099 379Q1050 379 1023 341Q997 304 997 231Q997 168 1016 116Q1035 65 1068 35Q1102 6 1144 6ZM1864 12Q1867 12 1867 6Q1867 0 1864 0Q1840 0 1825 1L1770 2L1715 1Q1700 0 1676 0Q1673 0 1673 6Q1673 12 1676 12Q1712 12 1723 25Q1735 39 1735 81L1735 237Q1735 295 1714 322Q1693 349 1647 349Q1619 349 1589 335Q1559 321 1535 296L1535 81Q1535 39 1546 25Q1558 12 1595 12Q1598 12 1598 6Q1598 0 1595 0Q1571 0 1556 1L1501 2L1445 1Q1431 0 1407 0Q1404 0 1404 6Q1404 12 1407 12Q1443 12 1454 25Q1466 39 1466 81L1466 276Q1466 309 1458 323Q1451 338 1433 338Q1414 338 1380 324L1378 324Q1375 324 1373 329Q1372 334 1375 335L1499 394Q1501 395 1505 395Q1515 395 1524 372Q1534 350 1535 314Q1608 399 1688 399Q1743 399 1773 366Q1804 334 1804 276L1804 81Q1804 39 1815 25Q1827 12 1864 12ZM2197 57L2199 58Q2203 58 2205 53Q2207 49 2204 47Q2167 16 2136 2Q2105 -12 2071 -12Q2029 -12 2000 7Q1972 27 1972 73L1972 304Q1972 339 1962 349Q1953 359 1920 359Q1917 359 1917 367Q1917 374 1920 374Q1964 375 1991 395Q2018 416 2026 452Q2027 455 2034 455Q2041 455 2041 452L2041 375Q2090 376 2177 385Q2180 385 2182 378Q2184 371 2184 362Q2184 353 2181 344Q2178 336 2174 337Q2111 350 2041 352L2041 107Q2041 67 2061 47Q2081 28 2118 28Q2162 28 2197 57ZM2592 59L2593 59Q2596 59 2598 55Q2601 52 2599 49Q2564 17 2527 2Q2491 -12 2449 -12Q2389 -12 2345 14Q2302 41 2279 85Q2257 129 2257 180Q2257 239 2285 288Q2314 338 2364 366Q2415 395 2476 395Q2532 395 2563 368Q2594 342 2594 296Q2594 271 2583 271L2535 271L2338 269Q2334 249 2334 220Q2334 134 2375 81Q2417 28 2490 28Q2548 28 2592 59ZM2441 375Q2404 375 2378 351Q2352 328 2341 285L2513 289Q2512 329 2493 352Q2474 375 2441 375ZM3133 12Q3136 12 3136 6Q3136 0 3133 0Q3109 0 3094 1L3039 2L2984 1Q2969 0 2945 0Q2942 0 2942 6Q2942 12 2945 12Q2981 12 2992 25Q3004 39 3004 81L3004 237Q3004 295 2983 322Q2962 349 2916 349Q2888 349 2858 335Q2828 321 2804 296L2804 81Q2804 39 2815 25Q2827 12 2864 12Q2867 12 2867 6Q2867 0 2864 0Q2840 0 2825 1L2770 2L2714 1Q2700 0 2676 0Q2673 0 2673 6Q2673 12 2676 12Q2712 12 2723 25Q2735 39 2735 81L2735 276Q2735 309 2727 323Q2720 338 2702 338Q2683 338 2649 324L2647 324Q2644 324 2642 329Q2641 334 2644 335L2768 394Q2770 395 2774 395Q2784 395 2793 372Q2803 350 2804 314Q2877 399 2957 399Q3012 399 3042 366Q3073 334 3073 276L3073 81Q3073 39 3084 25Q3096 12 3133 12ZM3657 59L3659 60Q3662 60 3664 55Q3666 50 3663 48L3544 -9Q3538 -11 3537 -11Q3525 -11 3516 10Q3507 31 3506 68Q3470 31 3431 9Q3392 -13 3344 -13Q3302 -13 3266 10Q3230 34 3209 78Q3188 122 3188 179Q3188 252 3223 301Q3258 351 3310 375Q3363 399 3416 399Q3462 399 3506 378L3506 594Q3506 631 3499 646Q3492 662 3474 662Q3461 662 3431 648L3430 648Q3426 648 3424 653Q3422 658 3425 660L3558 724Q3560 725 3563 725Q3566 725 3570 722Q3575 719 3575 715L3575 112Q3575 77 3582 61Q3590 46 3608 46Q3631 46 3657 59ZM3388 27Q3422 27 3450 42Q3478 58 3506 86L3506 315Q3485 345 3457 361Q3430 377 3393 377Q3333 377 3299 335Q3265 293 3265 210Q3265 126 3299 76Q3334 27 3388 27Z" fill="currentColor" style=""></path></g></g><g transform="matrix(1,0,0,1,2.048,1062.912)"><g transform="matrix(1.024,0,0,-1.024,0,0)"><path d="M504 59L506 60Q509 60 511 55Q513 50 510 48L391 -9Q385 -11 384 -11Q372 -11 363 10Q354 31 353 68Q317 31 278 9Q239 -13 191 -13Q149 -13 113 10Q77 34 56 78Q35 122 35 179Q35 252 70 301Q105 351 157 375Q210 399 263 399Q309 399 353 378L353 594Q353 631 346 646Q339 662 321 662Q308 662 278 648L277 648Q273 648 271 653Q269 658 272 660L405 724Q407 725 410 725Q413 725 417 722Q422 719 422 715L422 112Q422 77 429 61Q437 46 455 46Q478 46 504 59ZM235 27Q269 27 297 42Q325 58 353 86L353 315Q332 345 304 361Q277 377 240 377Q180 377 146 335Q112 293 112 210Q112 126 146 76Q181 27 235 27ZM882 59L883 59Q886 59 888 55Q891 52 889 49Q854 17 817 2Q781 -12 739 -12Q679 -12 635 14Q592 41 569 85Q547 129 547 180Q547 239 575 288Q604 338 654 366Q705 395 766 395Q822 395 853 368Q884 342 884 296Q884 271 873 271L825 271L628 269Q624 249 624 220Q624 134 665 81Q707 28 780 28Q838 28 882 59ZM731 375Q694 375 668 351Q642 328 631 285L803 289Q802 329 783 352Q764 375 731 375ZM1361 386Q1363 386 1363 380Q1363 374 1361 374Q1334 374 1315 356Q1296 338 1279 295L1155 1Q1153 -4 1144 -4Q1135 -4 1133 1L988 303Q968 346 953 360Q939 374 919 374Q916 374 916 380Q916 386 919 386Q938 386 949 385L996 384L1066 385Q1081 386 1108 386Q1111 386 1111 380Q1111 374 1108 374Q1049 374 1049 351Q1049 343 1053 335L1171 92L1257 299Q1264 320 1264 330Q1264 374 1189 374Q1187 374 1187 380Q1187 386 1189 386Q1216 386 1230 385L1290 384L1327 385Q1338 386 1361 386ZM1729 59L1730 59Q1733 59 1735 55Q1738 52 1736 49Q1701 17 1664 2Q1628 -12 1586 -12Q1526 -12 1482 14Q1439 41 1416 85Q1394 129 1394 180Q1394 239 1422 288Q1451 338 1501 366Q1552 395 1613 395Q1669 395 1700 368Q1731 342 1731 296Q1731 271 1720 271L1672 271L1475 269Q1471 249 1471 220Q1471 134 1512 81Q1554 28 1627 28Q1685 28 1729 59ZM1578 375Q1541 375 1515 351Q1489 328 1478 285L1650 289Q1649 329 1630 352Q1611 375 1578 375ZM1808 0Q1806 0 1806 6Q1806 12 1808 12Q1845 12 1856 25Q1868 39 1868 81L1869 595Q1869 631 1862 646Q1855 662 1838 662Q1821 662 1795 649L1793 649Q1790 649 1788 654Q1786 659 1789 660L1923 724L1927 725Q1931 725 1935 722Q1939 719 1939 715L1939 81Q1939 39 1950 25Q1962 12 1998 12Q2002 12 2002 6Q2002 0 1998 0Q1975 0 1961 1L1903 2L1847 1Q1833 0 1808 0ZM2264 -13Q2205 -13 2160 15Q2115 44 2090 92Q2066 141 2066 198Q2066 263 2098 308Q2130 354 2180 376Q2230 399 2282 399Q2341 399 2386 370Q2431 341 2455 293Q2479 246 2479 193Q2479 132 2449 85Q2420 38 2371 12Q2322 -13 2264 -13ZM2293 6Q2343 6 2370 45Q2397 84 2397 162Q2397 227 2377 276Q2358 326 2324 352Q2290 379 2248 379Q2199 379 2172 341Q2146 304 2146 231Q2146 168 2165 116Q2184 65 2217 35Q2251 6 2293 6ZM2833 399Q2875 399 2910 377Q2946 355 2967 313Q2988 271 2988 215Q2988 138 2954 86Q2921 35 2871 11Q2821 -13 2771 -13Q2742 -13 2719 -9Q2697 -4 2672 7L2672 -194Q2672 -224 2679 -238Q2686 -252 2706 -258Q2726 -263 2768 -263Q2771 -263 2771 -269Q2771 -275 2768 -275Q2733 -275 2713 -274L2638 -273L2582 -274Q2568 -275 2543 -275Q2540 -275 2540 -269Q2540 -263 2543 -263Q2569 -263 2582 -258Q2595 -252 2599 -238Q2604 -224 2604 -194L2604 274Q2604 308 2596 323Q2588 339 2569 339Q2550 339 2518 324L2517 324Q2513 324 2510 329Q2508 334 2512 335L2633 393L2639 395Q2651 395 2660 375Q2670 355 2672 320Q2751 399 2833 399ZM2798 9Q2850 9 2881 54Q2912 100 2912 184Q2912 266 2876 310Q2840 355 2784 355Q2752 355 2725 341Q2699 327 2672 301L2672 68Q2698 39 2727 24Q2756 9 2798 9ZM3394 59L3395 59Q3398 59 3400 55Q3403 52 3401 49Q3366 17 3329 2Q3293 -12 3251 -12Q3191 -12 3147 14Q3104 41 3081 85Q3059 129 3059 180Q3059 239 3087 288Q3116 338 3166 366Q3217 395 3278 395Q3334 395 3365 368Q3396 342 3396 296Q3396 271 3385 271L3337 271L3140 269Q3136 249 3136 220Q3136 134 3177 81Q3219 28 3292 28Q3350 28 3394 59ZM3243 375Q3206 375 3180 351Q3154 328 3143 285L3315 289Q3314 329 3295 352Q3276 375 3243 375ZM3718 395Q3741 395 3761 381Q3781 368 3781 349Q3781 334 3771 323Q3761 313 3744 313Q3734 313 3727 316Q3720 320 3715 324Q3710 329 3708 330Q3700 338 3692 342Q3685 347 3674 347Q3662 347 3648 337Q3634 328 3606 296L3606 81Q3606 52 3613 37Q3621 23 3641 17Q3661 12 3701 12Q3704 12 3704 6Q3704 0 3701 0Q3668 0 3648 1L3572 2L3516 1Q3502 0 3478 0Q3475 0 3475 6Q3475 12 3478 12Q3514 12 3525 25Q3537 39 3537 81L3537 276Q3537 309 3529 323Q3522 338 3504 338Q3485 338 3451 324L3449 324Q3446 324 3444 329Q3443 334 3446 335L3570 394Q3572 395 3576 395Q3586 395 3595 373Q3605 351 3606 315Q3647 361 3671 378Q3696 395 3718 395Z" fill="currentColor" style=""></path></g></g><g transform="matrix(3.2298,0,0,3.2298,-4105.7908,1331.2827)"><g transform="matrix(1.024,0,0,-1.024,0,0)"><path d="M461 616L463 490Q463 487 457 486Q452 486 451 489Q444 544 412 572Q380 601 328 601L277 601Q234 601 218 589Q203 577 203 543L203 325L295 325Q349 325 374 343Q400 361 400 397Q400 399 406 399Q412 399 412 397L411 313Q411 283 412 268L413 218Q413 216 407 216Q401 216 401 218Q401 261 375 281Q349 302 292 302L203 302L203 85Q203 53 211 38Q220 24 244 18Q268 12 320 12Q322 12 322 6Q322 0 320 0Q279 0 256 1L162 2L92 1Q73 0 39 0Q37 0 37 6Q37 12 39 12Q76 12 93 17Q111 22 117 36Q123 51 123 81L123 544Q123 574 117 588Q111 602 94 607Q78 613 43 613Q40 613 40 619Q40 625 43 625L451 625Q461 625 461 616ZM823 -4Q793 -4 754 -1Q739 0 717 1Q695 2 668 2L598 1Q579 0 546 0Q544 0 544 6Q544 12 546 12Q582 12 599 17Q616 22 622 36Q628 51 628 81L628 544Q628 574 622 588Q616 602 599 607Q583 613 548 613Q545 613 545 619Q545 625 548 625L598 624Q642 622 668 622Q706 622 745 625Q793 627 809 627Q912 627 992 587Q1072 547 1116 478Q1160 409 1160 323Q1160 226 1114 151Q1069 77 992 36Q915 -4 823 -4ZM813 14Q888 14 945 47Q1003 81 1035 145Q1068 210 1068 301Q1068 388 1037 458Q1007 529 950 569Q894 610 819 610Q776 610 753 605Q730 600 719 585Q708 571 708 542L708 92Q708 49 729 31Q751 14 813 14Z" fill="currentColor" style=""></path></g></g></g></svg>